<?xml version="1.0" encoding="iso-8859-1"?>
<!-- Generator: Adobe Illustrator 19.0.0, SVG Export Plug-In . SVG Version: 6.00 Build 0)  -->
<svg version="1.1" id="Layer_1" xmlns="http://www.w3.org/2000/svg" xmlns:xlink="http://www.w3.org/1999/xlink" x="0px" y="0px"
	 viewBox="0 0 512.005 512.005" style="enable-background:new 0 0 512.005 512.005;" xml:space="preserve">
<path style="fill:#F7B239;" d="M350.087,208.191c6.997,13.081,11.478,28.257,12.941,45.702
	c-26.584-18.37-63.534-11.572-81.588,15.913c5.055,3.323,10.062,6.716,15.012,10.203c-12.496,3.791-24.688,11.127-36.19,22.629
	c-52.477,52.477-42.812,113.565-30.375,148.713c-15.386,6.096-25.718,8.448-25.718,8.448S44.809,423.48,44.809,266.576
	c0-22.863,4.809-42.215,13.479-58.386c48.253-8.495,97.067-12.73,145.882-12.73C252.996,195.461,301.811,199.708,350.087,208.191z"
	/>
<g>
	<path style="fill:#E09B2D;" d="M107.988,266.693c0-26.119,4.499-48.355,12.62-67.075c-20.847,2.078-41.635,4.931-62.32,8.572
		c-8.67,16.17-13.479,35.523-13.479,58.386c0,136.127,119.93,181.481,151.697,191.108
		C153.949,424.855,107.988,366.346,107.988,266.693z"/>
	<path style="fill:#E09B2D;" d="M299.849,266.693c0-26.119-4.499-48.355-12.62-67.075c20.847,2.078,41.635,4.931,62.32,8.572
		c8.67,16.17,13.479,35.523,13.479,58.386c0,136.127-119.93,181.481-151.697,191.108
		C253.888,424.855,299.849,366.346,299.849,266.693z"/>
</g>
<path style="fill:#B27214;" d="M443.504,427.06c-20.031-28.596-42.496-55.343-67.102-79.95
	c-24.606-24.606-51.354-47.071-79.95-67.102c-4.949-3.487-9.957-6.88-15.012-10.203c18.054-27.485,55.004-34.283,81.588-15.913
	c1.182,0.819,2.34,1.685,3.475,2.598c37.02,29.789,70.73,63.499,100.519,100.519c8.705,10.811,12.882,23.694,12.882,36.459
	c0,18.814-9.091,37.36-26.186,48.604C450.395,437.018,447.002,432.01,443.504,427.06z"/>
<path style="fill:#995C0D;" d="M376.823,196.326c0,5.476-0.562,11.057-1.72,16.65c-8.319-1.72-16.661-3.323-25.016-4.785
	c-7.547-1.322-15.117-2.551-22.687-3.662c-40.858-6.049-82.044-9.068-123.23-9.068s-82.372,3.019-123.218,9.056
	c-7.559,1.123-15.117,2.352-22.664,3.674c-8.366,1.463-16.708,3.066-25.039,4.785c-9.77-47.188,23.284-92.434,71.186-97.617
	c33.148-3.58,66.435-5.371,99.735-5.371s66.588,1.79,99.735,5.371C346.121,119.922,376.823,155.62,376.823,196.326z"/>
<path style="fill:#B27214;" d="M327.4,204.529c-40.858-6.049-82.044-9.068-123.23-9.068s-82.372,3.019-123.218,9.056
	c2.609-45,23.635-82.921,51.868-88.058c23.717-4.306,47.539-6.47,71.35-6.47c23.822,0,47.644,2.165,71.35,6.47
	C303.765,121.607,324.802,159.54,327.4,204.529z"/>
<path style="fill:#F7B239;" d="M443.504,427.06c-2.516,8.307-6.599,16.474-12.438,24.396c-2.949,4.002-6.33,7.933-10.191,11.794
	c-79.072,79.072-177.672,17.071-177.672,17.071s-7.009-11.151-13.315-28.97c-12.438-35.148-22.102-96.237,30.375-148.713
	c3.697-3.697,7.453-6.95,11.268-9.793c8.085-6.049,16.427-10.261,24.922-12.835c28.596,20.031,55.343,42.496,79.95,67.102
	C401.008,371.717,423.473,398.464,443.504,427.06z"/>
<g>
	<path style="fill:#E09B2D;" d="M443.504,427.06c-2.516,8.307-6.599,16.474-12.438,24.396c-2.949,4.002-6.33,7.933-10.191,11.794
		c-79.072,79.072-177.672,17.071-177.672,17.071s-0.082-0.117-0.222-0.363c42.063,6.646,96.365,1.919,144.665-44.017
		c4.692-4.458,8.799-9.009,12.391-13.631c4.06-5.242,13.526-16.626,20.885-25.413C428.749,406.702,436.285,416.764,443.504,427.06z"
		/>
	<path style="fill:#E09B2D;" d="M443.504,427.06c-2.516,8.307-6.599,16.474-12.438,24.396c-1.299-1.895-2.609-3.791-3.943-5.675
		c-20.031-28.596-42.496-55.343-67.102-79.95c-24.606-24.606-51.354-47.071-79.95-67.102c-2.832-1.989-5.675-3.955-8.541-5.885
		c8.085-6.049,16.427-10.261,24.922-12.835c28.596,20.031,55.343,42.496,79.95,67.102
		C401.008,371.717,423.473,398.464,443.504,427.06z"/>
</g>
<path style="fill:#F7B239;" d="M215.628,69.252h-22.913c-11.146,0-20.182,9.036-20.182,20.182l0,0
	c0,11.146,9.036,20.182,20.182,20.182h22.913c11.146,0,20.182-9.036,20.182-20.182l0,0C235.81,78.288,226.774,69.252,215.628,69.252
	z"/>
<path style="fill:#333333;" d="M474.133,351.323c-13.198-16.396-27.188-32.183-41.89-47.283c4.371-4.714,11.042-12.707,16.413-22.61
	c12.17-22.438,11.876-43.611-0.849-61.231c-2.839-3.929-8.324-4.815-12.252-1.976c-3.929,2.837-4.814,8.323-1.976,12.252
	c8.557,11.847,8.503,26.056-0.159,42.232c-4.356,8.135-9.906,14.862-13.602,18.905c-15.176-14.792-31.046-28.867-47.536-42.141
	c-0.208-0.168-0.427-0.321-0.638-0.487c-1.149-10.354-3.363-20.153-6.607-29.314c2.851,0.56,5.703,1.124,8.552,1.715
	c0.59,0.122,1.186,0.183,1.78,0.183c1.699,0,3.376-0.494,4.818-1.44c1.946-1.278,3.303-3.276,3.776-5.555
	c5.151-24.872-0.472-50.911-15.425-71.442c-14.981-20.569-38.097-33.937-63.417-36.673c-20.971-2.266-42.034-3.819-63.132-4.663
	c1.832-3.797,2.869-8.048,2.869-12.539c0-15.968-12.991-28.958-28.958-28.958h-7.629c-9.407-34.65-29.891-55.404-59.557-60.183
	c-4.787-0.773-9.289,2.483-10.06,7.268c-0.771,4.784,2.484,9.288,7.268,10.059c21.382,3.443,36.181,17.899,44.106,43.005
	c-14.584,1.486-26,13.838-26,28.808c0,4.491,1.035,8.743,2.868,12.539c-21.097,0.844-42.16,2.396-63.131,4.663
	c-25.321,2.736-48.435,16.103-63.417,36.673c-14.953,20.531-20.574,46.57-15.425,71.442c0.472,2.279,1.83,4.277,3.776,5.555
	c1.947,1.279,4.32,1.73,6.598,1.259c2.855-0.591,5.712-1.157,8.569-1.719c-5.016,14.148-7.564,29.791-7.564,46.727
	c0,84.771,45.315,135.199,83.33,162.576c40.816,29.394,81.164,38.819,82.862,39.206c0.641,0.146,1.295,0.22,1.949,0.22
	c0.653,0,1.306-0.074,1.947-0.219c0.365-0.083,7.507-1.728,18.662-5.703c5.473,13.467,10.612,21.738,10.989,22.337
	c0.701,1.115,1.643,2.057,2.758,2.758c1.068,0.672,26.571,16.515,62.45,22.351c7.72,1.257,16.26,2.084,25.373,2.084
	c30.466,0,67.269-9.26,100.731-42.722c7.583-7.583,13.687-15.66,18.256-24.138c0.345,0.523,0.697,1.04,1.041,1.563
	c1.685,2.566,4.486,3.958,7.342,3.958c1.653,0,3.325-0.467,4.81-1.441c15.722-10.327,26.414-26.908,29.334-45.489
	C491.064,385.118,485.96,366.014,474.133,351.323z M470.314,383.091L442.51,394.68l8.441-43.873
	c3.212,3.807,6.388,7.643,9.51,11.522C465.376,368.433,468.717,375.569,470.314,383.091z M391.741,349.691l42.989-7.463
	l-8.896,46.238C414.997,375.04,403.64,362.099,391.741,349.691z M294.457,267.578c6.899-7.339,15.811-12.308,25.862-14.357
	l-7.695,27.227C306.649,276.068,300.611,271.756,294.457,267.578z M361.277,263.143c2.211,1.781,4.411,3.577,6.6,5.387
	l-37.275,12.837l8.034-28.425C346.846,254.357,354.668,257.823,361.277,263.143z M428.455,325.505l-38.065,6.607l2.571-41.73
	C405.231,301.631,417.075,313.354,428.455,325.505z M375.745,284.383l-2.862,46.474c-11.93-11.386-24.36-22.261-37.226-32.669
	L375.745,284.383z M354.352,153.464c10.32,14.169,15.122,31.596,13.677,48.899c-12.881-2.524-25.782-4.739-38.697-6.665
	c-1.559-10.918-3.669-35.833,4.051-61.505C341.493,139.139,348.657,145.646,354.352,153.464z M243.025,119.41
	c-7.747,25.531-22.404,58.837-38.259,66.604c-15.834-7.763-30.506-41.097-38.264-66.633
	C191.992,118.331,217.535,118.343,243.025,119.41z M160.249,153.184c6.015,14.004,12.433,25.217,19.206,33.603
	c-18.603,0.552-37.198,1.712-55.775,3.498c1.216-1.032,2.434-2.09,3.655-3.199c13.754-12.497,23.777-26.499,29.808-41.469
	C158.114,148.093,159.15,150.627,160.249,153.184z M249.28,153.184c1.099-2.558,2.133-5.091,3.104-7.568
	c6.032,14.968,16.054,28.972,29.808,41.469c1.247,1.134,2.492,2.213,3.734,3.266c-18.606-1.804-37.232-2.978-55.865-3.545
	C236.84,178.419,243.261,167.198,249.28,153.184z M317.281,126.869c-7.368,22.94-7.686,45.176-6.573,60.095
	c-16.823-11.159-42.65-33.373-46.886-66.442c13.165,0.849,26.309,1.969,39.414,3.386
	C308.039,124.426,312.738,125.437,317.281,126.869z M192.987,77.849h8.388c0.001,0,0.002,0,0.004,0c0.002,0,0.004,0,0.006,0h14.517
	c6.289,0,11.407,5.117,11.407,11.407s-5.118,11.407-11.407,11.407h-22.913c-6.289,0-11.407-5.118-11.407-11.407
	C181.581,82.967,186.698,77.849,192.987,77.849z M105.651,123.907c13.321-1.439,26.681-2.571,40.061-3.425
	c-4.22,33.094-30.063,55.322-46.891,66.482c1.116-14.957,0.791-37.267-6.632-60.27C96.552,125.358,101.052,124.403,105.651,123.907z
	 M54.536,153.464c5.821-7.991,13.176-14.617,21.509-19.602c7.817,25.717,5.73,50.728,4.168,61.735
	c-13.134,1.948-26.254,4.198-39.353,6.765C39.413,185.06,44.216,167.633,54.536,153.464z M204.444,450.57
	c-8.268-2.196-41.489-12.029-74.554-35.841c-50.454-36.335-76.036-86.242-76.036-148.334c0-18.948,3.553-35.908,10.549-50.496
	c93.062-15.909,187.02-15.909,280.082,0c3.333,6.952,5.889,14.459,7.646,22.464c-10.264-3.543-21.342-4.609-32.258-2.892
	c-18.582,2.922-35.162,13.614-45.489,29.336c-2.661,4.051-1.534,9.491,2.517,12.152c0.525,0.345,1.044,0.697,1.568,1.044
	c-8.478,4.569-16.555,10.673-24.139,18.257c-43.471,43.471-46.093,92.57-40.638,126.103c1.383,8.504,3.332,16.416,5.504,23.566
	C212.297,448.383,207.09,449.867,204.444,450.57z M414.942,456.871c-30.536,30.536-67.641,42.589-110.289,35.82
	c-27.497-4.363-48.744-15.537-54.781-18.965c-3.414-5.986-14.412-26.839-18.859-54.183c-6.977-42.888,5.043-80.193,35.725-110.875
	c8.926-8.926,18.53-15.333,28.6-19.102c53.867,38.317,100.39,84.84,138.706,138.707
	C430.275,438.342,423.868,447.945,414.942,456.871z M456.028,429.149c-3.743-5.512-7.596-10.926-11.5-16.294l26.099-10.879
	C468.756,412.562,463.684,421.952,456.028,429.149z"/>
<g>
</g>
<g>
</g>
<g>
</g>
<g>
</g>
<g>
</g>
<g>
</g>
<g>
</g>
<g>
</g>
<g>
</g>
<g>
</g>
<g>
</g>
<g>
</g>
<g>
</g>
<g>
</g>
<g>
</g>
</svg>
