<svg xmlns="http://www.w3.org/2000/svg" enable-background="new 0 0 100 100" height="64" width="66" style=""><rect id="backgroundrect" width="100%" height="100%" x="0" y="0" fill="none" stroke="none"/><g class="currentLayer" style=""><title>Layer 1</title><path d="m8.467140454589845,40.016035116088865 h8.031568 v22.519426 h-8.031568 z" fill="#e7a14e" id="svg_1" class=""/><path d="m49.22898145458984,40.016035116088865 h8.031568 v22.519426 h-8.031568 z" fill="#e7a14e" id="svg_2" class=""/><path d="m63.277015654589846,0.000001916088866238397 h-60.8263225 c-1.3534489,0 -2.4506931,1.097187 -2.4506931,2.4506931 v36.3694687 c0,1.3535042000000002 1.0972443,2.4506912 2.4506931,2.4506912 h60.8263245 c1.3535004000000002,0 2.4506912,-1.097187 2.4506912,-2.4506912 v-36.3694687 c-0.0000019000000000000017,-1.3535061000000002 -1.0971928,-2.4506931 -2.4506932,-2.4506931 z" fill="#4da0dc" id="svg_3" class=""/><path d="m55.93425755458985,62.53545951608886 s-0.9618378000000002,-5.6908646 5.1297913,-8.3359146 c0,0 -3.767189,3.6870422 -3.6870422,8.3359146 z" fill="#41a38e" id="svg_4" class=""/><path d="m56.60491175458985,62.53545951608886 s0.9618378000000002,-5.6908646 -5.1297989,-8.3359146 c0,0 3.7671967,3.6870422 3.6870422,8.3359146 z" fill="#4abba4" id="svg_5" class=""/><path d="m52.09278105458985,62.53545951608886 s0.6908035000000002,-4.0872498 -3.6842804,-5.9869614 c0,0 2.7056427000000003,2.6480789000000002 2.6480789000000002,5.9869614 z" fill="#4abba4" id="svg_6" class=""/><path d="m52.75614165458984,62.53545951608886 s-0.7247543000000002,-4.288147 3.8653717,-6.2812271 c0,0 -2.8386307,2.7782364 -2.7782364,6.2812271 z" fill="#41a38e" id="svg_7" class=""/><path d="m50.05536655458984,62.53545951608886 s-0.724762,-4.288147 3.8653641,-6.2812271 c0,0 -2.8386307,2.7782364 -2.7782288,6.2812271 z" fill="#41a38e" id="svg_8" class=""/><path d="m55.14340975458984,62.53545951608886 s0.9618378000000002,-5.6908646 -5.1297913,-8.3359146 c0,0 3.767189,3.6870422 3.6870346,8.3359146 z" fill="#4abba4" id="svg_9" class=""/><path d="m50.21513365458985,62.53545951608886 s0.9618378000000002,-5.6908646 -5.1297951,-8.3359146 c0,0 3.7671928,3.6870422 3.6870384,8.3359146 z" fill="#4abba4" id="svg_10" class=""/><path d="m52.97621915458984,62.53545951608886 s0.555481,-3.2866364 -2.9626007000000003,-4.8142242 c0,0 2.1756592,2.1293716 2.129364,4.8142242 z" fill="#41a38e" id="svg_11" class=""/><path d="m15.34248355458984,62.53545951608886 s-0.9618359000000002,-5.6908646 5.1297951,-8.3359146 c0,0 -3.7671928,3.6870422 -3.6870422,8.3359146 z" fill="#41a38e" id="svg_12" class=""/><path d="m16.013137854589843,62.53545951608886 s0.9618378000000002,-5.6908646 -5.1297932,-8.3359146 c0,0 3.7671928,3.6870422 3.6870384,8.3359146 z" fill="#4abba4" id="svg_13" class=""/><path d="m11.501010854589843,62.53545951608886 s0.6908035000000002,-4.0872498 -3.6842823,-5.9869614 c0,0 2.7056446000000003,2.6480789000000002 2.6480789000000002,5.9869614 z" fill="#4abba4" id="svg_14" class=""/><path d="m12.164369554589843,62.53545951608886 s-0.7247562000000002,-4.288147 3.8653698,-6.2812271 c0,0 -2.8386307,2.7782364 -2.7782345,6.2812271 z" fill="#41a38e" id="svg_15" class=""/><path d="m9.463590654589844,62.53545951608886 s-0.7247562000000002,-4.288147 3.8653717,-6.2812271 c0,0 -2.8386326,2.7782364 -2.7782364,6.2812271 z" fill="#41a38e" id="svg_16" class=""/><path d="m14.551639554589844,62.53545951608886 s0.9618378000000002,-5.6908646 -5.1297932,-8.3359146 c0,0 3.7671909,3.6870422 3.6870384,8.3359146 z" fill="#4abba4" id="svg_17" class=""/><path d="m9.623363454589843,62.53545951608886 s0.9618359000000002,-5.6908646 -5.1297951,-8.3359146 c0,0 3.7671928,3.6870422 3.6870403,8.3359146 z" fill="#4abba4" id="svg_18" class=""/><path d="m12.384445154589844,62.53545951608886 s0.5554866999999998,-3.2866364 -2.9625988000000003,-4.8142242 c0,0 2.1756573,2.1293716 2.1293678,4.8142242 z" fill="#41a38e" id="svg_19" class=""/><g fill="#feda6f" id="svg_20" class=""><path d="m20.02552795458984,64.01049611608887 c-0.9428673,-1.2571564 -4.1671257,-2.1847 -8.0110836,-2.1847 s-7.0682182000000005,0.9275436 -8.0110836,2.1847 z" id="svg_21"/><path d="m61.01929475458985,64.01049611608887 c-0.9428635,-1.2571564 -4.1671219,-2.1847 -8.0110855,-2.1847 c-3.843956,0 -7.0682144000000005,0.9275436 -8.0110817,2.1847 z" id="svg_22"/></g></g></svg>